<svg width="58" height="58" viewBox="0 0 58 58" fill="none" xmlns="http://www.w3.org/2000/svg">
<circle cx="29" cy="29" r="29" fill="#C4C4C4"/>
<path d="M39.1667 15H19.8333C18.5515 15 17.3221 15.5057 16.4157 16.4059C15.5092 17.3061 15 18.527 15 19.8L15 39C15 40.273 15.5092 41.4939 16.4157 42.3941C17.3221 43.2943 18.5515 43.8 19.8333 43.8H39.1667C40.4485 43.8 41.6779 43.2943 42.5843 42.3941C43.4908 41.4939 44 40.273 44 39V19.8C44 18.527 43.4908 17.3061 42.5843 16.4059C41.6779 15.5057 40.4485 15 39.1667 15V15ZM41.5833 39C41.5833 39.6365 41.3287 40.247 40.8755 40.6971C40.4223 41.1471 39.8076 41.4 39.1667 41.4H19.8333C19.1924 41.4 18.5777 41.1471 18.1245 40.6971C17.6713 40.247 17.4167 39.6365 17.4167 39V19.8C17.4167 19.1635 17.6713 18.553 18.1245 18.1029C18.5777 17.6529 19.1924 17.4 19.8333 17.4H39.1667C39.8076 17.4 40.4223 17.6529 40.8755 18.1029C41.3287 18.553 41.5833 19.1635 41.5833 19.8V39Z" fill="#5B5B5B"/>
<path d="M37.3541 23.4C38.3551 23.4 39.1666 22.5942 39.1666 21.6C39.1666 20.6059 38.3551 19.8 37.3541 19.8C36.3531 19.8 35.5416 20.6059 35.5416 21.6C35.5416 22.5942 36.3531 23.4 37.3541 23.4Z" fill="#5B5B5B"/>
<path d="M29.5 22.2C28.0661 22.2 26.6644 22.6222 25.4721 23.4134C24.2799 24.2045 23.3506 25.329 22.8019 26.6446C22.2531 27.9603 22.1096 29.4079 22.3893 30.8046C22.6691 32.2013 23.3595 33.4842 24.3735 34.4911C25.3874 35.4981 26.6792 36.1838 28.0856 36.4616C29.492 36.7394 30.9497 36.5968 32.2745 36.0519C33.5992 35.5069 34.7315 34.5841 35.5282 33.4001C36.3248 32.216 36.75 30.824 36.75 29.4C36.75 27.4904 35.9862 25.659 34.6265 24.3088C33.2669 22.9585 31.4228 22.2 29.5 22.2ZM29.5 34.1999C28.5441 34.1999 27.6096 33.9184 26.8147 33.391C26.0199 32.8636 25.4004 32.1139 25.0346 31.2368C24.6688 30.3597 24.573 29.3946 24.7595 28.4635C24.946 27.5324 25.4064 26.6771 26.0823 26.0058C26.7583 25.3345 27.6195 24.8774 28.5571 24.6922C29.4946 24.507 30.4665 24.602 31.3496 24.9653C32.2328 25.3286 32.9877 25.9439 33.5188 26.7332C34.0499 27.5226 34.3333 28.4506 34.3333 29.4C34.3333 30.673 33.8241 31.8939 32.9177 32.7941C32.0113 33.6942 30.7819 34.1999 29.5 34.1999Z" fill="#5B5B5B"/>
</svg>
